<svg xmlns="http://www.w3.org/2000/svg" viewBox="0 0 192 192" width="192" height="192">
  <!-- Background circle -->
  <circle cx="96" cy="96" r="96" fill="#1C1C28"/>
  
  <!-- Bitcoin logo styling -->
  <circle cx="96" cy="96" r="82" fill="#F7931A"/>
  
  <!-- Bitcoin symbol -->
  <g transform="translate(96 96) scale(0.7) translate(-96 -96)">
    <path d="M118.4,98.3c-3.6-3.6-9.2-4.9-14.4-4.1v-0.1h-10.8V78.1h-7.4v16h-6.4v-16h-7.4v16.1H57.6v7.7h7.1
    c2.7,0,4,1.7,4,3.4v30.9c0,2.5-2.1,3.5-4.1,3.5h-7.1v8h14.4v16.2h7.4v-16.2H86v16.2h7.4v-16.2h3.9c12.9,0,23.2-7,23.2-19.8
    C120.9,106.5,122.1,101.9,118.4,98.3z M100.5,132.9H86V116l14.5,0c8,0,11.6,3.2,11.6,8.6C112.1,129.2,108.1,132.9,100.5,132.9z
    M100.6,107.8H86V93.4h14.6c6.9,0,10.2,3,10.2,7.3C110.8,104.9,107.3,107.8,100.6,107.8z" fill="white"/>
  </g>
  
  <!-- Data analysis icon around Bitcoin -->
  <g transform="translate(96 96) scale(0.8) translate(-96 -96)">
    <path d="M150,130h-10c-1.7,0-3,1.3-3,3v20c0,1.7,1.3,3,3,3h10c1.7,0,3-1.3,3-3v-20C153,131.3,151.7,130,150,130z" fill="#4a4a5a" opacity="0.9"/>
    <path d="M130,110h-10c-1.7,0-3,1.3-3,3v40c0,1.7,1.3,3,3,3h10c1.7,0,3-1.3,3-3v-40C133,111.3,131.7,110,130,110z" fill="#4a4a5a" opacity="0.9"/>
    <path d="M72,100h-10c-1.7,0-3,1.3-3,3v50c0,1.7,1.3,3,3,3h10c1.7,0,3-1.3,3-3v-50C75,101.3,73.7,100,72,100z" fill="#4a4a5a" opacity="0.9"/>
    <path d="M52,120h-10c-1.7,0-3,1.3-3,3v30c0,1.7,1.3,3,3,3h10c1.7,0,3-1.3,3-3v-30C55,121.3,53.7,120,52,120z" fill="#4a4a5a" opacity="0.9"/>
  </g>
  
  <!-- Trend line -->
  <path d="M30,130 Q60,100 90,115 T150,85" stroke="#4CAF50" stroke-width="4" fill="none" opacity="0.8"/>
  <path d="M30,140 Q60,160 90,145 T150,160" stroke="#F44336" stroke-width="4" fill="none" opacity="0.6"/>
</svg>
